<svg width="604" height="455" viewBox="0 0 604 455" fill="none" xmlns="http://www.w3.org/2000/svg">
<g clip-path="url(#clip0_431_1024)">
<path d="M339.278 320.912C329.374 320.912 321.719 318.21 316.317 312.807C310.913 307.276 308.211 299.557 308.211 289.652V176.577H326.735V288.108C326.735 293.64 328.023 297.885 330.595 300.844C333.297 303.802 337.285 305.282 342.56 305.282C345.776 305.282 348.799 304.638 351.629 303.352L352.594 318.596C348.348 320.14 343.911 320.912 339.278 320.912Z" fill="#7A3FAE"/>
<path d="M401.275 320.912C391.371 320.912 383.715 318.21 378.313 312.807C372.909 307.276 370.209 299.557 370.209 289.652V176.577H388.731V288.108C388.731 293.64 390.02 297.885 392.592 300.844C395.294 303.802 399.282 305.282 404.556 305.282C407.772 305.282 410.795 304.638 413.625 303.352L414.59 318.596C410.344 320.14 405.907 320.912 401.275 320.912Z" fill="#7A3FAE"/>
<path fill-rule="evenodd" clip-rule="evenodd" d="M29.4283 316.666C38.9479 319.754 48.7888 321.297 58.9514 321.297C70.4006 321.297 80.0485 319.625 87.8956 316.281C95.7427 312.807 101.596 308.176 105.455 302.387C109.314 296.47 111.244 289.973 111.244 282.898C111.244 274.408 108.993 267.654 104.49 262.637C100.117 257.62 94.8423 253.89 88.6674 251.446C82.4927 249.001 74.324 246.557 64.1615 244.113C56.3143 242.312 50.0752 240.64 45.4442 239.096C40.9417 237.424 37.1469 235.173 34.0594 232.342C30.9722 229.384 29.4283 225.589 29.4283 220.958C29.4283 214.654 32.13 209.509 37.5329 205.521C43.0643 201.533 51.2973 199.539 62.2318 199.539C68.4065 199.539 74.71 200.504 81.1419 202.433C87.574 204.235 93.6201 206.936 99.2804 210.538L105.648 195.101C100.117 191.242 93.4915 188.283 85.773 186.225C78.0547 184.166 70.2075 183.137 62.2318 183.137C50.7829 183.137 41.1991 184.874 33.4806 188.347C25.7622 191.821 19.9733 196.452 16.1141 202.24C12.3836 208.029 10.5182 214.526 10.5182 221.73C10.5182 230.348 12.7051 237.231 17.0789 242.376C21.5813 247.393 26.9199 251.124 33.0946 253.568C39.3981 256.012 47.631 258.457 57.7938 260.901C65.8981 262.83 72.1372 264.567 76.5108 266.111C81.0133 267.654 84.744 269.905 87.7026 272.864C90.79 275.694 92.3337 279.425 92.3337 284.056C92.3337 290.359 89.568 295.441 84.0363 299.3C78.5049 303.031 70.1431 304.896 58.9514 304.896C50.4613 304.896 42.1639 303.481 34.0594 300.651C26.0838 297.692 19.5231 293.897 14.3775 289.266L7.23792 304.317C12.6408 309.334 20.0377 313.45 29.4283 316.666ZM155.257 291.774L176.483 272.092L214.882 319.754H237.651L190.376 259.743L233.407 217.485H211.023L155.257 268.426V176.577H136.733V319.754H155.257V291.774ZM272.843 319.754V217.485H254.319V319.754H272.843ZM505.96 292.353C498.5 300.586 488.659 304.703 476.439 304.703C467.818 304.703 460.421 302.773 454.247 298.914C448.201 295.055 443.892 289.588 441.318 282.512L522.556 266.689C522.426 256.784 520.112 248.037 515.608 240.447C511.106 232.857 505.06 227.004 497.47 222.887C489.88 218.642 481.455 216.52 472.193 216.52C462.416 216.52 453.603 218.771 445.757 223.273C438.039 227.647 431.928 233.822 427.426 241.797C423.052 249.773 420.866 258.714 420.866 268.619C420.866 278.653 423.117 287.658 427.619 295.634C432.249 303.609 438.746 309.848 447.108 314.351C455.47 318.725 465.053 320.912 475.86 320.912C484.35 320.912 492.003 319.496 498.821 316.666C505.767 313.836 511.492 309.72 515.994 304.317L505.96 292.353ZM454.826 236.588C459.972 233.629 465.76 232.15 472.193 232.15C480.297 232.15 487.243 234.465 493.033 239.096C498.821 243.727 502.551 249.773 504.225 257.234L438.811 269.584V267.654C438.811 260.579 440.225 254.404 443.055 249.13C445.885 243.727 449.808 239.546 454.826 236.588ZM580.502 221.151C574.2 224.238 569.44 228.74 566.224 234.658V217.485H548.471V319.754H566.996V268.812C566.996 257.749 569.826 249.259 575.486 243.341C581.274 237.295 589.185 234.272 599.219 234.272C601.021 234.272 602.435 234.336 603.465 234.465V216.52C594.461 216.52 586.806 218.063 580.502 221.151Z" fill="#7A3FAE"/>
<path d="M263.581 197.802C259.979 197.802 256.956 196.645 254.512 194.329C252.196 192.014 251.038 189.183 251.038 185.839C251.038 182.494 252.196 179.664 254.512 177.349C256.956 174.904 259.979 173.682 263.581 173.682C267.183 173.682 270.141 174.84 272.457 177.156C274.901 179.342 276.124 182.108 276.124 185.453C276.124 188.926 274.901 191.885 272.457 194.329C270.141 196.645 267.183 197.802 263.581 197.802Z" fill="#D1AE45"/>
</g>
<defs>
<clipPath id="clip0_431_1024">
<rect width="603.606" height="454.446" fill="white"/>
</clipPath>
</defs>
</svg>
